<?xml version="1.0" encoding="utf-8"?>
<!-- Generator: Adobe Illustrator 26.0.2, SVG Export Plug-In . SVG Version: 6.00 Build 0)  -->
<svg version="1.1" id="Layer_1" xmlns="http://www.w3.org/2000/svg" xmlns:xlink="http://www.w3.org/1999/xlink" x="0px" y="0px"
	 viewBox="0 0 64 64" style="enable-background:new 0 0 64 64;" xml:space="preserve">
<style type="text/css">
	.st0{fill:#FFDC78;}
	.st1{fill:#FFB145;}
	.st2{fill:#FCA124;}
	.st3{fill:#83D9F2;}
	.st4{fill:#A4EAFF;}
	.st5{fill:#69CAE6;}
</style>
<g id="_11-Partly_Cloudy">
	<path class="st0" d="M22,15c-0.6,0-1-0.4-1-1v-3c0-0.6,0.4-1,1-1s1,0.4,1,1v3C23,14.6,22.6,15,22,15z"/>
	<path class="st0" d="M22,46c-0.6,0-1-0.4-1-1v-3c0-0.6,0.4-1,1-1s1,0.4,1,1v3C23,45.6,22.6,46,22,46z"/>
	<path class="st0" d="M8,29H5c-0.6,0-1-0.4-1-1s0.4-1,1-1h3c0.6,0,1,0.4,1,1S8.6,29,8,29z"/>
	<path class="st0" d="M39,29h-3c-0.6,0-1-0.4-1-1s0.4-1,1-1h3c0.6,0,1,0.4,1,1S39.6,29,39,29z"/>
	<path class="st0" d="M12.1,19.1c-0.3,0-0.5-0.1-0.7-0.3L8.6,16c-0.4-0.4-0.4-1,0-1.4s1-0.4,1.4,0c0,0,0,0,0,0l2.8,2.8
		c0.4,0.4,0.4,1,0,1.4C12.6,19,12.4,19.1,12.1,19.1z"/>
	<path class="st0" d="M9.3,41.7c-0.6,0-1-0.4-1-1c0-0.3,0.1-0.5,0.3-0.7l2.8-2.8c0.4-0.4,1-0.4,1.4,0c0.4,0.4,0.4,1,0,1.4L10,41.4
		C9.8,41.6,9.5,41.7,9.3,41.7z"/>
	<path class="st0" d="M31.9,19.1c-0.6,0-1-0.4-1-1c0-0.3,0.1-0.5,0.3-0.7l2.8-2.8c0.4-0.4,1-0.4,1.4,0c0.4,0.4,0.4,1,0,1.4
		c0,0,0,0,0,0l-2.8,2.8C32.4,19,32.2,19.1,31.9,19.1z"/>
	<circle class="st1" cx="22" cy="28" r="11"/>
	<path class="st2" d="M24,35c-6.1,0-11-4.9-11-10.9c0-1,0.1-1.9,0.4-2.9c-3.8,4.8-3,11.7,1.8,15.4s11.7,3,15.4-1.8
		c0.9-1.2,1.6-2.6,2-4C30.5,33.5,27.4,35,24,35z"/>
	<g>
		<path class="st3" d="M53.9,24.8c-2-3.9-6-6.4-10.4-6.4c-5.6,0-9,3.5-10.2,8.7c-4,0-7.2,3.2-7.2,7.2c0,4.3,3.9,7.2,9,7.2h18.7
			c4.6,0,8.4-3.7,8.4-8.3S58.5,24.8,53.9,24.8L53.9,24.8L53.9,24.8z"/>
		<path class="st4" d="M49.2,39.3c0,0.7-0.1,1.5-0.4,2.2H35.1c-4.4,0-7.8-2.1-8.8-5.4c0-0.1-0.1-0.2-0.1-0.3c0-0.1-0.1-0.2-0.1-0.4
			c0-0.1-0.1-0.3-0.1-0.4c0-0.2,0-0.5,0-0.7c0-4,3.3-7.2,7.3-7.2c3.6,0,6.6,2.6,7.1,6.2c0.7-0.3,1.5-0.4,2.2-0.4
			C46.3,32.8,49.2,35.7,49.2,39.3L49.2,39.3z"/>
		<path class="st5" d="M51.3,37.9c-0.2-3.8-3.4-6.7-7.2-6.5c-0.4,0-0.7,0.1-1.1,0.1c-1.1-3.9-4.6-6.6-8.7-6.6c-0.1,0-0.3,0-0.4,0
			c-0.3,0.7-0.5,1.4-0.7,2.1c3.4,0,6.4,2.4,7.1,5.7c0,0.2,0.1,0.3,0.1,0.5c0.7-0.3,1.5-0.4,2.2-0.4c0.2,0,0.4,0,0.7,0
			c3.3,0.3,5.8,3.1,5.8,6.5c0,0.7-0.1,1.5-0.4,2.2h5c4.1,0,7.6-3,8.3-7.1C57.9,39.8,53.7,39.1,51.3,37.9z"/>
	</g>
	<g>
		<path class="st3" d="M34.3,38c-2-3.9-6-6.4-10.4-6.4c-5.6,0-9,3.5-10.2,8.7c-4,0-7.2,3.2-7.2,7.2c0,4.3,3.9,7.2,9,7.2h18.7
			c4.6,0,8.4-3.7,8.4-8.3S38.9,38,34.3,38L34.3,38L34.3,38z"/>
		<path class="st4" d="M29.6,52.5c0,0.7-0.1,1.5-0.4,2.2H15.5c-4.4,0-7.8-2.1-8.8-5.4c0-0.1-0.1-0.2-0.1-0.3c0-0.1-0.1-0.2-0.1-0.4
			c0-0.1-0.1-0.3-0.1-0.4c0-0.2,0-0.5,0-0.7c0-4,3.3-7.2,7.3-7.2c3.6,0,6.6,2.6,7.1,6.2c0.7-0.3,1.5-0.4,2.2-0.4
			C26.7,46,29.6,48.9,29.6,52.5L29.6,52.5z"/>
		<path class="st5" d="M31.8,51.1c-0.2-3.8-3.4-6.7-7.2-6.5c-0.4,0-0.7,0.1-1.1,0.1c-1.1-3.9-4.6-6.6-8.7-6.6c-0.1,0-0.3,0-0.4,0
			c-0.3,0.7-0.5,1.4-0.7,2.1c3.4,0,6.4,2.4,7.1,5.7c0,0.2,0.1,0.3,0.1,0.5c0.7-0.3,1.5-0.4,2.2-0.4c0.2,0,0.4,0,0.7,0
			c3.3,0.3,5.8,3.1,5.8,6.5c0,0.7-0.1,1.5-0.4,2.2h5c4.1,0,7.6-3,8.3-7.1C38.3,53.1,34.2,52.3,31.8,51.1z"/>
	</g>
</g>
</svg>
