<?xml version="1.0" encoding="utf-8"?>
<!-- Generator: Adobe Illustrator 26.0.2, SVG Export Plug-In . SVG Version: 6.00 Build 0)  -->
<svg version="1.1" id="Layer_1" xmlns="http://www.w3.org/2000/svg" xmlns:xlink="http://www.w3.org/1999/xlink" x="0px" y="0px"
	 viewBox="0 0 64 64" style="enable-background:new 0 0 64 64;" xml:space="preserve">
<style type="text/css">
	.st0{fill:#E4E4E9;}
	.st1{fill:#D2D2D6;}
	.st2{fill:#B9B9BD;}
	.st3{fill:#EDEDED;}
</style>
<g id="_09-Snow">
	<path class="st0" d="M47,40c7.2-0.1,12.9-6,12.8-13.2c-0.1-7-5.7-12.6-12.7-12.8C42.7,5.1,31.9,1.5,23,5.9
		c-4.9,2.4-8.4,6.9-9.6,12.3C8,18.9,4,23.5,4,29c0,6.1,6,11,14,11H47z"/>
	<path class="st1" d="M47.1,14L47.1,14c-4.8,0-9.1,2.5-11.4,6.6c-6.3-2-13.1,1.4-15.1,7.7c-1.3,4.1-0.4,8.5,2.5,11.7h-5
		c-8,0-14-4.9-14-11c0-5.5,4-10.1,9.4-10.9C15.6,8.4,25.2,2.3,34.9,4.4C40.2,5.6,44.7,9.1,47.1,14z"/>
	<path class="st2" d="M16,30c-1.3,2.6-4.2,3.9-7,3c-2.7-0.9-4.3-3.3-4.8-6.1C4.1,27.6,4,28.3,4,29c0,6.1,6,11,14,11h5
		c-4.4-4.9-4-12.5,1-16.9c1.8-1.6,4-2.6,6.3-2.9C23.6,20.2,19.2,24.4,16,30z"/>
	<path class="st2" d="M35.1,20.4c0.2,0.1,0.4,0.1,0.6,0.2C38,16.5,42.4,14,47,14h0.1c-0.3-0.7-0.7-1.3-1.1-1.9
		C37.6,12.9,35.6,18.6,35.1,20.4z"/>
</g>
<g id="_03-windy">
	<path class="st3" d="M56.6,48H42H27.6H13c-0.6,0-1,0.4-1,1s0.4,1,1,1h14.6H42h14.6c0.6,0,1-0.4,1-1S57.2,48,56.6,48z"/>
	<path class="st3" d="M55.5,43.2h4.4H45.5H30.8c-0.6,0-1,0.4-1,1s0.4,1,1,1h14.6h14.4h-4.4c0.6,0,1-0.4,1-1
		C56.5,43.6,56,43.2,55.5,43.2z"/>
	<path class="st3" d="M36.6,39.1H41H26.6H12c-0.6,0-1,0.4-1,1s0.4,1,1,1h14.6H41h-4.4c0.6,0,1-0.4,1-1
		C37.6,39.6,37.2,39.1,36.6,39.1z"/>
	<path class="st3" d="M34.9,53.7h4.4H24.9H10.2c-0.6,0-1,0.4-1,1s0.4,1,1,1h14.6h14.4h-4.4c0.6,0,1-0.4,1-1
		C35.9,54.1,35.4,53.7,34.9,53.7z"/>
	<path class="st1" d="M50,53.7h-8c-0.6,0-1-0.4-1-1s0.4-1,1-1h8c0.6,0,1,0.4,1,1S50.6,53.7,50,53.7z"/>
	<path class="st1" d="M25.6,46.2h-8c-0.6,0-1-0.4-1-1s0.4-1,1-1h8c0.6,0,1,0.4,1,1S26.1,46.2,25.6,46.2z"/>
</g>
</svg>
