<?xml version="1.0" encoding="utf-8"?>
<!-- Generator: Adobe Illustrator 26.0.2, SVG Export Plug-In . SVG Version: 6.00 Build 0)  -->
<svg version="1.1" id="Layer_1" xmlns="http://www.w3.org/2000/svg" xmlns:xlink="http://www.w3.org/1999/xlink" x="0px" y="0px"
	 viewBox="0 0 64 64" style="enable-background:new 0 0 64 64;" xml:space="preserve">
<style type="text/css">
	.st0{fill:#E4E4E9;}
	.st1{fill:#D2D2D6;}
	.st2{fill:#B9B9BD;}
	.st3{fill:#EDEDED;}
</style>
<g id="_09-Snow">
	<path class="st0" d="M46,42.2c7.2-0.1,12.9-6,12.8-13.2c-0.1-7-5.7-12.6-12.7-12.8C41.8,7.3,30.9,3.7,22,8.1
		c-4.9,2.4-8.4,6.9-9.6,12.3C7,21.1,3,25.7,3,31.2c0,6.1,6,11,14,11H46z"/>
	<path class="st1" d="M46.1,16.2L46.1,16.2c-4.8,0-9.1,2.5-11.4,6.6c-6.3-2-13.1,1.4-15.1,7.7c-1.3,4.1-0.4,8.5,2.5,11.7h-5
		c-8,0-14-4.9-14-11c0-5.5,4-10.1,9.4-10.9C14.6,10.6,24.2,4.5,34,6.6C39.2,7.8,43.8,11.3,46.1,16.2z"/>
	<path class="st2" d="M15,32.2c-1.3,2.6-4.2,3.9-7,3c-2.7-0.9-4.3-3.3-4.8-6.1C3.1,29.8,3,30.5,3,31.2c0,6.1,6,11,14,11h5
		c-4.4-4.9-4-12.5,1-16.9c1.8-1.6,4-2.6,6.3-2.9C22.6,22.4,18.2,26.6,15,32.2z"/>
	<path class="st2" d="M34.1,22.6c0.2,0.1,0.4,0.1,0.6,0.2c2.3-4.1,6.7-6.6,11.3-6.6h0.1c-0.3-0.7-0.7-1.3-1.1-1.9
		C36.6,15.1,34.6,20.8,34.1,22.6z"/>
</g>
<g id="_03-windy">
	<path class="st3" d="M55.6,50.2H41H26.6H12c-0.6,0-1,0.4-1,1s0.4,1,1,1h14.6H41h14.6c0.6,0,1-0.4,1-1S56.2,50.2,55.6,50.2z"/>
	<path class="st3" d="M54.5,45.4H59H44.5H29.8c-0.6,0-1,0.4-1,1s0.4,1,1,1h14.6h14.4h-4.4c0.6,0,1-0.4,1-1
		C55.5,45.8,55,45.4,54.5,45.4z"/>
	<path class="st3" d="M35.6,41.3H40H25.6H11c-0.6,0-1,0.4-1,1s0.4,1,1,1h14.6H40h-4.4c0.6,0,1-0.4,1-1
		C36.6,41.8,36.2,41.3,35.6,41.3z"/>
	<path class="st3" d="M34,55.9h4.4H23.9H9.2c-0.6,0-1,0.4-1,1s0.4,1,1,1h14.6h14.4h-4.4c0.6,0,1-0.4,1-1C35,56.3,34.5,55.9,34,55.9z
		"/>
	<path class="st1" d="M49,55.9h-8c-0.6,0-1-0.4-1-1s0.4-1,1-1h8c0.6,0,1,0.4,1,1S49.6,55.9,49,55.9z"/>
	<path class="st1" d="M24.6,48.4h-8c-0.6,0-1-0.4-1-1s0.4-1,1-1h8c0.6,0,1,0.4,1,1S25.1,48.4,24.6,48.4z"/>
</g>
</svg>
